<mxfile host="app.diagrams.net" modified="2023-10-09T20:12:40.915Z" agent="Mozilla/5.0 (Macintosh; Intel Mac OS X 10.15; rv:109.0) Gecko/20100101 Firefox/118.0" etag="XtvTCSAT7Px1j4Fsb1fU" version="22.0.4" type="github">
  <diagram name="Page-1" id="jRxVOJpkHry3Ad6UqNwz">
    <mxGraphModel dx="1125" dy="1836" grid="1" gridSize="10" guides="1" tooltips="1" connect="1" arrows="1" fold="1" page="1" pageScale="1" pageWidth="850" pageHeight="1100" math="0" shadow="0">
      <root>
        <mxCell id="0" />
        <mxCell id="1" parent="0" />
        <mxCell id="JLQSQmLujptrUOS1xBNh-3" value="" style="edgeStyle=orthogonalEdgeStyle;rounded=0;orthogonalLoop=1;jettySize=auto;html=1;" edge="1" parent="1" source="JLQSQmLujptrUOS1xBNh-1" target="JLQSQmLujptrUOS1xBNh-2">
          <mxGeometry relative="1" as="geometry" />
        </mxCell>
        <mxCell id="JLQSQmLujptrUOS1xBNh-1" value="" style="ellipse;html=1;shape=endState;fillColor=#000000;strokeColor=none;" vertex="1" parent="1">
          <mxGeometry x="20" y="107.5" width="30" height="30" as="geometry" />
        </mxCell>
        <mxCell id="JLQSQmLujptrUOS1xBNh-5" value="" style="edgeStyle=orthogonalEdgeStyle;rounded=0;orthogonalLoop=1;jettySize=auto;html=1;" edge="1" parent="1" source="JLQSQmLujptrUOS1xBNh-2" target="JLQSQmLujptrUOS1xBNh-4">
          <mxGeometry relative="1" as="geometry" />
        </mxCell>
        <mxCell id="JLQSQmLujptrUOS1xBNh-41" value="Find Book" style="edgeLabel;html=1;align=center;verticalAlign=middle;resizable=0;points=[];" vertex="1" connectable="0" parent="JLQSQmLujptrUOS1xBNh-5">
          <mxGeometry x="-0.2625" y="-1" relative="1" as="geometry">
            <mxPoint y="1" as="offset" />
          </mxGeometry>
        </mxCell>
        <mxCell id="JLQSQmLujptrUOS1xBNh-2" value="" style="rhombus;whiteSpace=wrap;html=1;fillColor=none;strokeColor=default;" vertex="1" parent="1">
          <mxGeometry x="137.5" y="105" width="35" height="35" as="geometry" />
        </mxCell>
        <mxCell id="JLQSQmLujptrUOS1xBNh-4" value="" style="rhombus;whiteSpace=wrap;html=1;fillColor=none;strokeColor=default;" vertex="1" parent="1">
          <mxGeometry x="252.5" y="105" width="35" height="35" as="geometry" />
        </mxCell>
        <mxCell id="JLQSQmLujptrUOS1xBNh-6" value="ref" style="shape=umlFrame;whiteSpace=wrap;html=1;pointerEvents=0;" vertex="1" parent="1">
          <mxGeometry x="330" y="30" width="160" height="80" as="geometry" />
        </mxCell>
        <mxCell id="JLQSQmLujptrUOS1xBNh-7" value="Search Books" style="text;align=center;fontStyle=1;verticalAlign=middle;spacingLeft=3;spacingRight=3;strokeColor=none;rotatable=0;points=[[0,0.5],[1,0.5]];portConstraint=eastwest;html=1;" vertex="1" parent="1">
          <mxGeometry x="370" y="70" width="80" height="26" as="geometry" />
        </mxCell>
        <mxCell id="JLQSQmLujptrUOS1xBNh-8" value="ref" style="shape=umlFrame;whiteSpace=wrap;html=1;pointerEvents=0;" vertex="1" parent="1">
          <mxGeometry x="330" y="140" width="160" height="80" as="geometry" />
        </mxCell>
        <mxCell id="JLQSQmLujptrUOS1xBNh-9" value="Browse Books" style="text;align=center;fontStyle=1;verticalAlign=middle;spacingLeft=3;spacingRight=3;strokeColor=none;rotatable=0;points=[[0,0.5],[1,0.5]];portConstraint=eastwest;html=1;" vertex="1" parent="1">
          <mxGeometry x="370" y="180" width="80" height="26" as="geometry" />
        </mxCell>
        <mxCell id="JLQSQmLujptrUOS1xBNh-10" value="" style="endArrow=classic;html=1;rounded=0;exitX=0.5;exitY=1;exitDx=0;exitDy=0;entryX=-0.006;entryY=0.563;entryDx=0;entryDy=0;entryPerimeter=0;" edge="1" parent="1" source="JLQSQmLujptrUOS1xBNh-4" target="JLQSQmLujptrUOS1xBNh-8">
          <mxGeometry width="50" height="50" relative="1" as="geometry">
            <mxPoint x="400" y="300" as="sourcePoint" />
            <mxPoint x="450" y="250" as="targetPoint" />
            <Array as="points">
              <mxPoint x="270" y="185" />
            </Array>
          </mxGeometry>
        </mxCell>
        <mxCell id="JLQSQmLujptrUOS1xBNh-19" value="Browse" style="edgeLabel;html=1;align=center;verticalAlign=middle;resizable=0;points=[];" vertex="1" connectable="0" parent="JLQSQmLujptrUOS1xBNh-10">
          <mxGeometry x="0.4418" relative="1" as="geometry">
            <mxPoint as="offset" />
          </mxGeometry>
        </mxCell>
        <mxCell id="JLQSQmLujptrUOS1xBNh-11" value="" style="endArrow=classic;html=1;rounded=0;exitX=0.5;exitY=0;exitDx=0;exitDy=0;entryX=-0.019;entryY=0.588;entryDx=0;entryDy=0;entryPerimeter=0;" edge="1" parent="1" source="JLQSQmLujptrUOS1xBNh-4" target="JLQSQmLujptrUOS1xBNh-6">
          <mxGeometry width="50" height="50" relative="1" as="geometry">
            <mxPoint x="400" y="300" as="sourcePoint" />
            <mxPoint x="450" y="250" as="targetPoint" />
            <Array as="points">
              <mxPoint x="270" y="77" />
              <mxPoint x="310" y="77" />
            </Array>
          </mxGeometry>
        </mxCell>
        <mxCell id="JLQSQmLujptrUOS1xBNh-18" value="Search" style="edgeLabel;html=1;align=center;verticalAlign=middle;resizable=0;points=[];" vertex="1" connectable="0" parent="JLQSQmLujptrUOS1xBNh-11">
          <mxGeometry x="0.3183" relative="1" as="geometry">
            <mxPoint as="offset" />
          </mxGeometry>
        </mxCell>
        <mxCell id="JLQSQmLujptrUOS1xBNh-12" value="" style="verticalLabelPosition=bottom;verticalAlign=top;html=1;shape=mxgraph.basic.rect;fillColor2=none;strokeWidth=1;size=20;indent=5;fillColor=#000000;" vertex="1" parent="1">
          <mxGeometry x="560" y="96" width="10" height="70" as="geometry" />
        </mxCell>
        <mxCell id="JLQSQmLujptrUOS1xBNh-13" value="" style="endArrow=classic;html=1;rounded=0;entryX=0;entryY=0.729;entryDx=0;entryDy=0;entryPerimeter=0;" edge="1" parent="1" source="JLQSQmLujptrUOS1xBNh-8" target="JLQSQmLujptrUOS1xBNh-12">
          <mxGeometry width="50" height="50" relative="1" as="geometry">
            <mxPoint x="400" y="300" as="sourcePoint" />
            <mxPoint x="450" y="250" as="targetPoint" />
            <Array as="points">
              <mxPoint x="530" y="184" />
              <mxPoint x="530" y="147" />
            </Array>
          </mxGeometry>
        </mxCell>
        <mxCell id="JLQSQmLujptrUOS1xBNh-14" value="" style="endArrow=classic;html=1;rounded=0;exitX=1.013;exitY=0.513;exitDx=0;exitDy=0;exitPerimeter=0;entryX=1;entryY=0.25;entryDx=0;entryDy=0;" edge="1" parent="1" source="JLQSQmLujptrUOS1xBNh-6" target="JLQSQmLujptrUOS1xBNh-73">
          <mxGeometry width="50" height="50" relative="1" as="geometry">
            <mxPoint x="500" y="80" as="sourcePoint" />
            <mxPoint x="450" y="250" as="targetPoint" />
            <Array as="points">
              <mxPoint x="530" y="71" />
              <mxPoint x="530" y="110" />
            </Array>
          </mxGeometry>
        </mxCell>
        <mxCell id="JLQSQmLujptrUOS1xBNh-15" value="" style="endArrow=classic;html=1;rounded=0;exitX=1.2;exitY=0.571;exitDx=0;exitDy=0;exitPerimeter=0;" edge="1" parent="1" source="JLQSQmLujptrUOS1xBNh-12">
          <mxGeometry width="50" height="50" relative="1" as="geometry">
            <mxPoint x="400" y="300" as="sourcePoint" />
            <mxPoint x="620" y="136" as="targetPoint" />
          </mxGeometry>
        </mxCell>
        <mxCell id="JLQSQmLujptrUOS1xBNh-21" value="" style="edgeStyle=orthogonalEdgeStyle;rounded=0;orthogonalLoop=1;jettySize=auto;html=1;" edge="1" parent="1" source="JLQSQmLujptrUOS1xBNh-16" target="JLQSQmLujptrUOS1xBNh-20">
          <mxGeometry relative="1" as="geometry" />
        </mxCell>
        <mxCell id="JLQSQmLujptrUOS1xBNh-16" value="ref" style="shape=umlFrame;whiteSpace=wrap;html=1;pointerEvents=0;" vertex="1" parent="1">
          <mxGeometry x="620" y="96" width="160" height="80" as="geometry" />
        </mxCell>
        <mxCell id="JLQSQmLujptrUOS1xBNh-17" value="View Book Details" style="text;align=center;fontStyle=1;verticalAlign=middle;spacingLeft=3;spacingRight=3;strokeColor=none;rotatable=0;points=[[0,0.5],[1,0.5]];portConstraint=eastwest;html=1;" vertex="1" parent="1">
          <mxGeometry x="660" y="136" width="80" height="26" as="geometry" />
        </mxCell>
        <mxCell id="JLQSQmLujptrUOS1xBNh-20" value="" style="rhombus;whiteSpace=wrap;html=1;" vertex="1" parent="1">
          <mxGeometry x="830" y="119" width="30" height="34" as="geometry" />
        </mxCell>
        <mxCell id="JLQSQmLujptrUOS1xBNh-22" value="ref" style="shape=umlFrame;whiteSpace=wrap;html=1;pointerEvents=0;" vertex="1" parent="1">
          <mxGeometry x="910" y="96" width="160" height="80" as="geometry" />
        </mxCell>
        <mxCell id="JLQSQmLujptrUOS1xBNh-23" value="Add to Cart" style="text;align=center;fontStyle=1;verticalAlign=middle;spacingLeft=3;spacingRight=3;strokeColor=none;rotatable=0;points=[[0,0.5],[1,0.5]];portConstraint=eastwest;html=1;" vertex="1" parent="1">
          <mxGeometry x="950" y="136" width="80" height="26" as="geometry" />
        </mxCell>
        <mxCell id="JLQSQmLujptrUOS1xBNh-24" value="" style="endArrow=classic;html=1;rounded=0;exitX=1;exitY=0.5;exitDx=0;exitDy=0;entryX=-0.006;entryY=0.5;entryDx=0;entryDy=0;entryPerimeter=0;" edge="1" parent="1" source="JLQSQmLujptrUOS1xBNh-20" target="JLQSQmLujptrUOS1xBNh-22">
          <mxGeometry width="50" height="50" relative="1" as="geometry">
            <mxPoint x="600" y="300" as="sourcePoint" />
            <mxPoint x="650" y="250" as="targetPoint" />
          </mxGeometry>
        </mxCell>
        <mxCell id="JLQSQmLujptrUOS1xBNh-25" value="" style="endArrow=classic;html=1;rounded=0;exitX=0.5;exitY=0;exitDx=0;exitDy=0;" edge="1" parent="1" source="JLQSQmLujptrUOS1xBNh-20">
          <mxGeometry width="50" height="50" relative="1" as="geometry">
            <mxPoint x="600" y="300" as="sourcePoint" />
            <mxPoint x="790" as="targetPoint" />
            <Array as="points">
              <mxPoint x="845" />
            </Array>
          </mxGeometry>
        </mxCell>
        <mxCell id="JLQSQmLujptrUOS1xBNh-26" value="" style="verticalLabelPosition=bottom;verticalAlign=top;html=1;shape=mxgraph.basic.rect;fillColor2=none;strokeWidth=1;size=20;indent=5;fillColor=#000000;" vertex="1" parent="1">
          <mxGeometry x="780" y="-50" width="10" height="70" as="geometry" />
        </mxCell>
        <mxCell id="JLQSQmLujptrUOS1xBNh-27" value="" style="endArrow=classic;html=1;rounded=0;exitX=0.575;exitY=0;exitDx=0;exitDy=0;exitPerimeter=0;" edge="1" parent="1" source="JLQSQmLujptrUOS1xBNh-22">
          <mxGeometry width="50" height="50" relative="1" as="geometry">
            <mxPoint x="600" y="140" as="sourcePoint" />
            <mxPoint x="790" y="-31" as="targetPoint" />
            <Array as="points">
              <mxPoint x="1002" y="-31" />
            </Array>
          </mxGeometry>
        </mxCell>
        <mxCell id="JLQSQmLujptrUOS1xBNh-29" value="" style="endArrow=classic;html=1;rounded=0;exitX=-0.1;exitY=0.571;exitDx=0;exitDy=0;exitPerimeter=0;entryX=0.5;entryY=0;entryDx=0;entryDy=0;" edge="1" parent="1" source="JLQSQmLujptrUOS1xBNh-26" target="JLQSQmLujptrUOS1xBNh-2">
          <mxGeometry width="50" height="50" relative="1" as="geometry">
            <mxPoint x="550" y="150" as="sourcePoint" />
            <mxPoint x="640" y="-10" as="targetPoint" />
            <Array as="points">
              <mxPoint x="155" y="-10" />
            </Array>
          </mxGeometry>
        </mxCell>
        <mxCell id="JLQSQmLujptrUOS1xBNh-35" value="" style="edgeStyle=orthogonalEdgeStyle;rounded=0;orthogonalLoop=1;jettySize=auto;html=1;" edge="1" parent="1" source="JLQSQmLujptrUOS1xBNh-30" target="JLQSQmLujptrUOS1xBNh-34">
          <mxGeometry relative="1" as="geometry" />
        </mxCell>
        <mxCell id="JLQSQmLujptrUOS1xBNh-30" value="ref" style="shape=umlFrame;whiteSpace=wrap;html=1;pointerEvents=0;" vertex="1" parent="1">
          <mxGeometry x="240" y="270" width="160" height="80" as="geometry" />
        </mxCell>
        <mxCell id="JLQSQmLujptrUOS1xBNh-31" value="View/Update&lt;br&gt;Shopping Cart" style="text;align=center;fontStyle=1;verticalAlign=middle;spacingLeft=3;spacingRight=3;strokeColor=none;rotatable=0;points=[[0,0.5],[1,0.5]];portConstraint=eastwest;html=1;" vertex="1" parent="1">
          <mxGeometry x="280" y="310" width="80" height="26" as="geometry" />
        </mxCell>
        <mxCell id="JLQSQmLujptrUOS1xBNh-32" value="" style="endArrow=classic;html=1;rounded=0;exitX=0.5;exitY=1;exitDx=0;exitDy=0;entryX=0.013;entryY=0.6;entryDx=0;entryDy=0;entryPerimeter=0;" edge="1" parent="1" source="JLQSQmLujptrUOS1xBNh-2" target="JLQSQmLujptrUOS1xBNh-30">
          <mxGeometry width="50" height="50" relative="1" as="geometry">
            <mxPoint x="380" y="150" as="sourcePoint" />
            <mxPoint x="430" y="100" as="targetPoint" />
            <Array as="points">
              <mxPoint x="155" y="318" />
            </Array>
          </mxGeometry>
        </mxCell>
        <mxCell id="JLQSQmLujptrUOS1xBNh-34" value="" style="rhombus;whiteSpace=wrap;html=1;" vertex="1" parent="1">
          <mxGeometry x="490" y="290" width="40" height="40" as="geometry" />
        </mxCell>
        <mxCell id="JLQSQmLujptrUOS1xBNh-36" value="" style="endArrow=classic;html=1;rounded=0;exitX=0.5;exitY=0;exitDx=0;exitDy=0;entryX=0.538;entryY=1.038;entryDx=0;entryDy=0;entryPerimeter=0;" edge="1" parent="1" source="JLQSQmLujptrUOS1xBNh-34" target="JLQSQmLujptrUOS1xBNh-16">
          <mxGeometry width="50" height="50" relative="1" as="geometry">
            <mxPoint x="590" y="230" as="sourcePoint" />
            <mxPoint x="640" y="180" as="targetPoint" />
            <Array as="points">
              <mxPoint x="510" y="260" />
              <mxPoint x="706" y="260" />
            </Array>
          </mxGeometry>
        </mxCell>
        <mxCell id="JLQSQmLujptrUOS1xBNh-37" value="ref" style="shape=umlFrame;whiteSpace=wrap;html=1;pointerEvents=0;" vertex="1" parent="1">
          <mxGeometry x="750" y="270" width="160" height="80" as="geometry" />
        </mxCell>
        <mxCell id="JLQSQmLujptrUOS1xBNh-38" value="Remove Book&lt;br&gt;&lt;div&gt;from Cart&lt;/div&gt;" style="text;align=center;fontStyle=1;verticalAlign=middle;spacingLeft=3;spacingRight=3;strokeColor=none;rotatable=0;points=[[0,0.5],[1,0.5]];portConstraint=eastwest;html=1;" vertex="1" parent="1">
          <mxGeometry x="790" y="310" width="80" height="26" as="geometry" />
        </mxCell>
        <mxCell id="JLQSQmLujptrUOS1xBNh-39" value="" style="endArrow=classic;html=1;rounded=0;exitX=1;exitY=0.5;exitDx=0;exitDy=0;entryX=-0.012;entryY=0.5;entryDx=0;entryDy=0;entryPerimeter=0;" edge="1" parent="1" source="JLQSQmLujptrUOS1xBNh-34" target="JLQSQmLujptrUOS1xBNh-37">
          <mxGeometry width="50" height="50" relative="1" as="geometry">
            <mxPoint x="560" y="250" as="sourcePoint" />
            <mxPoint x="610" y="200" as="targetPoint" />
          </mxGeometry>
        </mxCell>
        <mxCell id="JLQSQmLujptrUOS1xBNh-40" value="" style="endArrow=classic;html=1;rounded=0;exitX=0.606;exitY=0.025;exitDx=0;exitDy=0;exitPerimeter=0;entryX=0.5;entryY=1;entryDx=0;entryDy=0;" edge="1" parent="1" source="JLQSQmLujptrUOS1xBNh-37" target="JLQSQmLujptrUOS1xBNh-20">
          <mxGeometry width="50" height="50" relative="1" as="geometry">
            <mxPoint x="560" y="250" as="sourcePoint" />
            <mxPoint x="610" y="200" as="targetPoint" />
          </mxGeometry>
        </mxCell>
        <mxCell id="JLQSQmLujptrUOS1xBNh-42" value="" style="endArrow=classic;html=1;rounded=0;exitX=0.5;exitY=1;exitDx=0;exitDy=0;" edge="1" parent="1" source="JLQSQmLujptrUOS1xBNh-34">
          <mxGeometry width="50" height="50" relative="1" as="geometry">
            <mxPoint x="460" y="360" as="sourcePoint" />
            <mxPoint x="510" y="380" as="targetPoint" />
          </mxGeometry>
        </mxCell>
        <mxCell id="JLQSQmLujptrUOS1xBNh-46" value="" style="edgeStyle=orthogonalEdgeStyle;rounded=0;orthogonalLoop=1;jettySize=auto;html=1;" edge="1" parent="1" source="JLQSQmLujptrUOS1xBNh-43" target="JLQSQmLujptrUOS1xBNh-45">
          <mxGeometry relative="1" as="geometry" />
        </mxCell>
        <mxCell id="JLQSQmLujptrUOS1xBNh-43" value="ref" style="shape=umlFrame;whiteSpace=wrap;html=1;pointerEvents=0;" vertex="1" parent="1">
          <mxGeometry x="430" y="380" width="160" height="80" as="geometry" />
        </mxCell>
        <mxCell id="JLQSQmLujptrUOS1xBNh-44" value="Checkout" style="text;align=center;fontStyle=1;verticalAlign=middle;spacingLeft=3;spacingRight=3;strokeColor=none;rotatable=0;points=[[0,0.5],[1,0.5]];portConstraint=eastwest;html=1;" vertex="1" parent="1">
          <mxGeometry x="470" y="420" width="80" height="26" as="geometry" />
        </mxCell>
        <mxCell id="JLQSQmLujptrUOS1xBNh-49" value="" style="edgeStyle=orthogonalEdgeStyle;rounded=0;orthogonalLoop=1;jettySize=auto;html=1;entryX=1.014;entryY=0.46;entryDx=0;entryDy=0;entryPerimeter=0;" edge="1" parent="1" source="JLQSQmLujptrUOS1xBNh-45" target="JLQSQmLujptrUOS1xBNh-47">
          <mxGeometry relative="1" as="geometry" />
        </mxCell>
        <mxCell id="JLQSQmLujptrUOS1xBNh-45" value="" style="rhombus;whiteSpace=wrap;html=1;" vertex="1" parent="1">
          <mxGeometry x="490" y="490" width="40" height="40" as="geometry" />
        </mxCell>
        <mxCell id="JLQSQmLujptrUOS1xBNh-47" value="ref" style="shape=umlFrame;whiteSpace=wrap;html=1;pointerEvents=0;" vertex="1" parent="1">
          <mxGeometry x="240" y="474" width="160" height="80" as="geometry" />
        </mxCell>
        <mxCell id="JLQSQmLujptrUOS1xBNh-48" value="Login" style="text;align=center;fontStyle=1;verticalAlign=middle;spacingLeft=3;spacingRight=3;strokeColor=none;rotatable=0;points=[[0,0.5],[1,0.5]];portConstraint=eastwest;html=1;" vertex="1" parent="1">
          <mxGeometry x="282" y="505" width="80" height="26" as="geometry" />
        </mxCell>
        <mxCell id="JLQSQmLujptrUOS1xBNh-50" value="" style="endArrow=classic;html=1;rounded=0;exitX=1;exitY=0.5;exitDx=0;exitDy=0;" edge="1" parent="1" source="JLQSQmLujptrUOS1xBNh-45">
          <mxGeometry width="50" height="50" relative="1" as="geometry">
            <mxPoint x="450" y="420" as="sourcePoint" />
            <mxPoint x="620" y="510" as="targetPoint" />
          </mxGeometry>
        </mxCell>
        <mxCell id="JLQSQmLujptrUOS1xBNh-51" value="ref" style="shape=umlFrame;whiteSpace=wrap;html=1;pointerEvents=0;" vertex="1" parent="1">
          <mxGeometry x="620" y="470" width="160" height="80" as="geometry" />
        </mxCell>
        <mxCell id="JLQSQmLujptrUOS1xBNh-52" value="Register" style="text;align=center;fontStyle=1;verticalAlign=middle;spacingLeft=3;spacingRight=3;strokeColor=none;rotatable=0;points=[[0,0.5],[1,0.5]];portConstraint=eastwest;html=1;" vertex="1" parent="1">
          <mxGeometry x="662" y="501" width="80" height="26" as="geometry" />
        </mxCell>
        <mxCell id="JLQSQmLujptrUOS1xBNh-53" value="ref" style="shape=umlFrame;whiteSpace=wrap;html=1;pointerEvents=0;" vertex="1" parent="1">
          <mxGeometry x="425" y="650" width="160" height="80" as="geometry" />
        </mxCell>
        <mxCell id="JLQSQmLujptrUOS1xBNh-54" value="Enter/Confirm&lt;br&gt;&lt;div&gt;Shipping Details&lt;/div&gt;" style="text;align=center;fontStyle=1;verticalAlign=middle;spacingLeft=3;spacingRight=3;strokeColor=none;rotatable=0;points=[[0,0.5],[1,0.5]];portConstraint=eastwest;html=1;" vertex="1" parent="1">
          <mxGeometry x="467" y="685" width="80" height="26" as="geometry" />
        </mxCell>
        <mxCell id="JLQSQmLujptrUOS1xBNh-55" value="" style="verticalLabelPosition=bottom;verticalAlign=top;html=1;shape=mxgraph.basic.rect;fillColor2=none;strokeWidth=1;size=20;indent=0;fillColor=#000000;" vertex="1" parent="1">
          <mxGeometry x="464" y="610" width="80" height="10" as="geometry" />
        </mxCell>
        <mxCell id="JLQSQmLujptrUOS1xBNh-56" value="" style="endArrow=classic;html=1;rounded=0;entryX=0.329;entryY=-0.3;entryDx=0;entryDy=0;entryPerimeter=0;exitX=0.502;exitY=1.038;exitDx=0;exitDy=0;exitPerimeter=0;" edge="1" parent="1" source="JLQSQmLujptrUOS1xBNh-47" target="JLQSQmLujptrUOS1xBNh-55">
          <mxGeometry width="50" height="50" relative="1" as="geometry">
            <mxPoint x="590" y="599" as="sourcePoint" />
            <mxPoint x="630" y="500" as="targetPoint" />
            <Array as="points">
              <mxPoint x="320" y="580" />
              <mxPoint x="490" y="580" />
            </Array>
          </mxGeometry>
        </mxCell>
        <mxCell id="JLQSQmLujptrUOS1xBNh-57" value="" style="endArrow=classic;html=1;rounded=0;entryX=0.694;entryY=-0.223;entryDx=0;entryDy=0;entryPerimeter=0;" edge="1" parent="1" target="JLQSQmLujptrUOS1xBNh-55">
          <mxGeometry width="50" height="50" relative="1" as="geometry">
            <mxPoint x="710" y="550" as="sourcePoint" />
            <mxPoint x="630" y="500" as="targetPoint" />
            <Array as="points">
              <mxPoint x="710" y="580" />
              <mxPoint x="520" y="580" />
            </Array>
          </mxGeometry>
        </mxCell>
        <mxCell id="JLQSQmLujptrUOS1xBNh-58" value="" style="endArrow=classic;html=1;rounded=0;" edge="1" parent="1">
          <mxGeometry width="50" height="50" relative="1" as="geometry">
            <mxPoint x="506" y="615" as="sourcePoint" />
            <mxPoint x="506" y="650" as="targetPoint" />
          </mxGeometry>
        </mxCell>
        <mxCell id="JLQSQmLujptrUOS1xBNh-59" value="ref" style="shape=umlFrame;whiteSpace=wrap;html=1;pointerEvents=0;" vertex="1" parent="1">
          <mxGeometry x="424" y="790" width="160" height="80" as="geometry" />
        </mxCell>
        <mxCell id="JLQSQmLujptrUOS1xBNh-60" value="Accept Payment" style="text;align=center;fontStyle=1;verticalAlign=middle;spacingLeft=3;spacingRight=3;strokeColor=none;rotatable=0;points=[[0,0.5],[1,0.5]];portConstraint=eastwest;html=1;" vertex="1" parent="1">
          <mxGeometry x="466" y="821" width="80" height="26" as="geometry" />
        </mxCell>
        <mxCell id="JLQSQmLujptrUOS1xBNh-62" value="" style="endArrow=classic;html=1;rounded=0;exitX=0.508;exitY=1.034;exitDx=0;exitDy=0;exitPerimeter=0;entryX=0.522;entryY=-0.028;entryDx=0;entryDy=0;entryPerimeter=0;" edge="1" parent="1" source="JLQSQmLujptrUOS1xBNh-53" target="JLQSQmLujptrUOS1xBNh-59">
          <mxGeometry width="50" height="50" relative="1" as="geometry">
            <mxPoint x="560" y="820" as="sourcePoint" />
            <mxPoint x="610" y="770" as="targetPoint" />
          </mxGeometry>
        </mxCell>
        <mxCell id="JLQSQmLujptrUOS1xBNh-63" value="" style="endArrow=classic;html=1;rounded=0;exitX=1.014;exitY=0.581;exitDx=0;exitDy=0;exitPerimeter=0;" edge="1" parent="1" source="JLQSQmLujptrUOS1xBNh-59">
          <mxGeometry width="50" height="50" relative="1" as="geometry">
            <mxPoint x="580" y="790" as="sourcePoint" />
            <mxPoint x="660" y="836" as="targetPoint" />
          </mxGeometry>
        </mxCell>
        <mxCell id="JLQSQmLujptrUOS1xBNh-64" value="ref" style="shape=umlFrame;whiteSpace=wrap;html=1;pointerEvents=0;" vertex="1" parent="1">
          <mxGeometry x="662" y="794" width="160" height="80" as="geometry" />
        </mxCell>
        <mxCell id="JLQSQmLujptrUOS1xBNh-65" value="Send Confirmation" style="text;align=center;fontStyle=1;verticalAlign=middle;spacingLeft=3;spacingRight=3;strokeColor=none;rotatable=0;points=[[0,0.5],[1,0.5]];portConstraint=eastwest;html=1;" vertex="1" parent="1">
          <mxGeometry x="704" y="825" width="80" height="26" as="geometry" />
        </mxCell>
        <mxCell id="JLQSQmLujptrUOS1xBNh-66" value="" style="endArrow=classic;html=1;rounded=0;exitX=1.019;exitY=0.547;exitDx=0;exitDy=0;exitPerimeter=0;" edge="1" parent="1" source="JLQSQmLujptrUOS1xBNh-64">
          <mxGeometry width="50" height="50" relative="1" as="geometry">
            <mxPoint x="580" y="790" as="sourcePoint" />
            <mxPoint x="900" y="838" as="targetPoint" />
          </mxGeometry>
        </mxCell>
        <mxCell id="JLQSQmLujptrUOS1xBNh-70" value="" style="edgeStyle=orthogonalEdgeStyle;rounded=0;orthogonalLoop=1;jettySize=auto;html=1;" edge="1" parent="1" source="JLQSQmLujptrUOS1xBNh-67" target="JLQSQmLujptrUOS1xBNh-69">
          <mxGeometry relative="1" as="geometry" />
        </mxCell>
        <mxCell id="JLQSQmLujptrUOS1xBNh-67" value="ref" style="shape=umlFrame;whiteSpace=wrap;html=1;pointerEvents=0;" vertex="1" parent="1">
          <mxGeometry x="900" y="798" width="160" height="80" as="geometry" />
        </mxCell>
        <mxCell id="JLQSQmLujptrUOS1xBNh-68" value="Fulfill Order" style="text;align=center;fontStyle=1;verticalAlign=middle;spacingLeft=3;spacingRight=3;strokeColor=none;rotatable=0;points=[[0,0.5],[1,0.5]];portConstraint=eastwest;html=1;" vertex="1" parent="1">
          <mxGeometry x="942" y="829" width="80" height="26" as="geometry" />
        </mxCell>
        <mxCell id="JLQSQmLujptrUOS1xBNh-69" value="" style="ellipse;html=1;shape=endState;fillColor=#000000;strokeColor=#ff0000;" vertex="1" parent="1">
          <mxGeometry x="1120" y="823" width="30" height="30" as="geometry" />
        </mxCell>
        <UserObject label="Initial node" placeholders="1" name="Variable" id="JLQSQmLujptrUOS1xBNh-71">
          <mxCell style="text;html=1;strokeColor=none;fillColor=none;align=center;verticalAlign=middle;whiteSpace=wrap;overflow=hidden;fontColor=#FFB570;" vertex="1" parent="1">
            <mxGeometry x="10" y="87.5" width="80" height="20" as="geometry" />
          </mxCell>
        </UserObject>
        <UserObject label="decision node:&lt;br&gt;&lt;div&gt;continue with previous cart or search for a new book.&lt;/div&gt;" placeholders="1" name="Variable" id="JLQSQmLujptrUOS1xBNh-72">
          <mxCell style="text;html=1;strokeColor=none;fillColor=none;align=center;verticalAlign=middle;whiteSpace=wrap;overflow=hidden;fontColor=#FFB570;" vertex="1" parent="1">
            <mxGeometry x="70" y="121" width="145" height="78" as="geometry" />
          </mxCell>
        </UserObject>
        <UserObject label="decision node: Browse catelog or use search function" placeholders="1" name="Variable" id="JLQSQmLujptrUOS1xBNh-73">
          <mxCell style="text;html=1;strokeColor=none;fillColor=none;align=center;verticalAlign=middle;whiteSpace=wrap;overflow=hidden;fontColor=#FFB570;" vertex="1" parent="1">
            <mxGeometry x="255" y="102" width="305" height="48" as="geometry" />
          </mxCell>
        </UserObject>
        <UserObject label="merge nodes" placeholders="1" name="Variable" id="JLQSQmLujptrUOS1xBNh-74">
          <mxCell style="text;html=1;strokeColor=none;fillColor=none;align=center;verticalAlign=middle;whiteSpace=wrap;overflow=hidden;fontColor=#FFB570;rotation=-90;" vertex="1" parent="1">
            <mxGeometry x="540" y="121" width="80" height="32" as="geometry" />
          </mxCell>
        </UserObject>
        <UserObject label="decision node: &lt;br&gt;Add to cart or return to edit cart/browse books" placeholders="1" name="Variable" id="JLQSQmLujptrUOS1xBNh-75">
          <mxCell style="text;html=1;strokeColor=none;fillColor=none;align=center;verticalAlign=middle;whiteSpace=wrap;overflow=hidden;fontColor=#FFB570;" vertex="1" parent="1">
            <mxGeometry x="692.5" y="158" width="305" height="48" as="geometry" />
          </mxCell>
        </UserObject>
        <UserObject label="merge nodes" placeholders="1" name="Variable" id="JLQSQmLujptrUOS1xBNh-76">
          <mxCell style="text;html=1;strokeColor=none;fillColor=none;align=center;verticalAlign=middle;whiteSpace=wrap;overflow=hidden;fontColor=#FFB570;rotation=-90;" vertex="1" parent="1">
            <mxGeometry x="729" y="-25" width="80" height="32" as="geometry" />
          </mxCell>
        </UserObject>
        <UserObject label="decision node: &lt;br&gt;View book details, remove/edit cart, &lt;br&gt;or continue to checkout" placeholders="1" name="Variable" id="JLQSQmLujptrUOS1xBNh-79">
          <mxCell style="text;html=1;strokeColor=none;fillColor=none;align=center;verticalAlign=middle;whiteSpace=wrap;overflow=hidden;fontColor=#FFB570;" vertex="1" parent="1">
            <mxGeometry x="480" y="262" width="212.5" height="48" as="geometry" />
          </mxCell>
        </UserObject>
        <UserObject label="decision node:&lt;br&gt;&lt;div&gt;Login to existing account, register new account, or continue as guest&lt;/div&gt;" placeholders="1" name="Variable" id="JLQSQmLujptrUOS1xBNh-80">
          <mxCell style="text;html=1;strokeColor=none;fillColor=none;align=center;verticalAlign=middle;whiteSpace=wrap;overflow=hidden;fontColor=#FFB570;" vertex="1" parent="1">
            <mxGeometry x="407.5" y="526" width="212.5" height="48" as="geometry" />
          </mxCell>
        </UserObject>
        <mxCell id="JLQSQmLujptrUOS1xBNh-82" style="edgeStyle=orthogonalEdgeStyle;rounded=0;orthogonalLoop=1;jettySize=auto;html=1;entryX=0.521;entryY=-0.113;entryDx=0;entryDy=0;entryPerimeter=0;" edge="1" parent="1" source="JLQSQmLujptrUOS1xBNh-45" target="JLQSQmLujptrUOS1xBNh-55">
          <mxGeometry relative="1" as="geometry" />
        </mxCell>
        <UserObject label="merge nodes" placeholders="1" name="Variable" id="JLQSQmLujptrUOS1xBNh-83">
          <mxCell style="text;html=1;strokeColor=none;fillColor=none;align=center;verticalAlign=middle;whiteSpace=wrap;overflow=hidden;fontColor=#FFB570;rotation=-1;" vertex="1" parent="1">
            <mxGeometry x="466" y="612" width="80" height="32" as="geometry" />
          </mxCell>
        </UserObject>
        <UserObject label="final node" placeholders="1" name="Variable" id="JLQSQmLujptrUOS1xBNh-85">
          <mxCell style="text;html=1;strokeColor=none;fillColor=none;align=center;verticalAlign=middle;whiteSpace=wrap;overflow=hidden;fontColor=#FFB570;rotation=-1;" vertex="1" parent="1">
            <mxGeometry x="1095" y="798" width="80" height="32" as="geometry" />
          </mxCell>
        </UserObject>
        <UserObject label="Activity: &lt;br&gt;Post-purchase Process" placeholders="1" name="Variable" id="JLQSQmLujptrUOS1xBNh-86">
          <mxCell style="text;html=1;strokeColor=none;fillColor=none;align=center;verticalAlign=middle;whiteSpace=wrap;overflow=hidden;fontColor=#97D077;rotation=0;" vertex="1" parent="1">
            <mxGeometry x="800" y="758" width="131" height="32" as="geometry" />
          </mxCell>
        </UserObject>
        <mxCell id="JLQSQmLujptrUOS1xBNh-88" value="" style="endArrow=classic;html=1;rounded=0;fillColor=#d5e8d4;strokeColor=#82b366;entryX=0.617;entryY=-0.049;entryDx=0;entryDy=0;entryPerimeter=0;exitX=1;exitY=0.5;exitDx=0;exitDy=0;" edge="1" parent="1" source="JLQSQmLujptrUOS1xBNh-86" target="JLQSQmLujptrUOS1xBNh-67">
          <mxGeometry width="50" height="50" relative="1" as="geometry">
            <mxPoint x="840" y="740" as="sourcePoint" />
            <mxPoint x="890" y="690" as="targetPoint" />
          </mxGeometry>
        </mxCell>
        <mxCell id="JLQSQmLujptrUOS1xBNh-89" value="" style="endArrow=classic;html=1;rounded=0;fillColor=#d5e8d4;strokeColor=#82b366;entryX=0.474;entryY=-0.021;entryDx=0;entryDy=0;entryPerimeter=0;exitX=0;exitY=0.5;exitDx=0;exitDy=0;" edge="1" parent="1" source="JLQSQmLujptrUOS1xBNh-86" target="JLQSQmLujptrUOS1xBNh-64">
          <mxGeometry width="50" height="50" relative="1" as="geometry">
            <mxPoint x="840" y="740" as="sourcePoint" />
            <mxPoint x="890" y="690" as="targetPoint" />
          </mxGeometry>
        </mxCell>
        <UserObject label="Activity:&lt;br&gt;Manage Shopping Cart" placeholders="1" name="Variable" id="JLQSQmLujptrUOS1xBNh-90">
          <mxCell style="text;html=1;strokeColor=none;fillColor=none;align=center;verticalAlign=middle;whiteSpace=wrap;overflow=hidden;fontColor=#97D077;" vertex="1" parent="1">
            <mxGeometry x="960" y="250" width="141" height="48" as="geometry" />
          </mxCell>
        </UserObject>
        <mxCell id="JLQSQmLujptrUOS1xBNh-91" value="" style="endArrow=classic;html=1;rounded=0;fillColor=#d5e8d4;strokeColor=#82b366;exitX=0.5;exitY=0;exitDx=0;exitDy=0;entryX=0.761;entryY=1.03;entryDx=0;entryDy=0;entryPerimeter=0;" edge="1" parent="1" source="JLQSQmLujptrUOS1xBNh-90" target="JLQSQmLujptrUOS1xBNh-22">
          <mxGeometry width="50" height="50" relative="1" as="geometry">
            <mxPoint x="920" y="330" as="sourcePoint" />
            <mxPoint x="970" y="280" as="targetPoint" />
          </mxGeometry>
        </mxCell>
        <mxCell id="JLQSQmLujptrUOS1xBNh-92" value="" style="endArrow=classic;html=1;rounded=0;fillColor=#d5e8d4;strokeColor=#82b366;entryX=1.011;entryY=0.345;entryDx=0;entryDy=0;entryPerimeter=0;exitX=0;exitY=0.75;exitDx=0;exitDy=0;" edge="1" parent="1" source="JLQSQmLujptrUOS1xBNh-90" target="JLQSQmLujptrUOS1xBNh-37">
          <mxGeometry width="50" height="50" relative="1" as="geometry">
            <mxPoint x="920" y="330" as="sourcePoint" />
            <mxPoint x="970" y="280" as="targetPoint" />
          </mxGeometry>
        </mxCell>
        <UserObject label="Activity:&lt;br&gt;Finalize Purchase" placeholders="1" name="Variable" id="JLQSQmLujptrUOS1xBNh-93">
          <mxCell style="text;html=1;strokeColor=none;fillColor=none;align=center;verticalAlign=middle;whiteSpace=wrap;overflow=hidden;fontColor=#97D077;" vertex="1" parent="1">
            <mxGeometry x="850" y="520" width="110" height="48" as="geometry" />
          </mxCell>
        </UserObject>
        <mxCell id="JLQSQmLujptrUOS1xBNh-94" value="" style="endArrow=classic;html=1;rounded=0;entryX=1.021;entryY=0.029;entryDx=0;entryDy=0;entryPerimeter=0;exitX=0.25;exitY=1;exitDx=0;exitDy=0;fillColor=#d5e8d4;strokeColor=#82b366;" edge="1" parent="1" source="JLQSQmLujptrUOS1xBNh-93" target="JLQSQmLujptrUOS1xBNh-59">
          <mxGeometry width="50" height="50" relative="1" as="geometry">
            <mxPoint x="680" y="630" as="sourcePoint" />
            <mxPoint x="730" y="580" as="targetPoint" />
          </mxGeometry>
        </mxCell>
        <mxCell id="JLQSQmLujptrUOS1xBNh-95" value="" style="endArrow=classic;html=1;rounded=0;entryX=1.004;entryY=0.497;entryDx=0;entryDy=0;entryPerimeter=0;exitX=0;exitY=0.75;exitDx=0;exitDy=0;fillColor=#d5e8d4;strokeColor=#82b366;" edge="1" parent="1" source="JLQSQmLujptrUOS1xBNh-93" target="JLQSQmLujptrUOS1xBNh-53">
          <mxGeometry width="50" height="50" relative="1" as="geometry">
            <mxPoint x="680" y="630" as="sourcePoint" />
            <mxPoint x="730" y="580" as="targetPoint" />
          </mxGeometry>
        </mxCell>
        <mxCell id="JLQSQmLujptrUOS1xBNh-96" value="" style="endArrow=classic;html=1;rounded=0;exitX=0;exitY=0.25;exitDx=0;exitDy=0;entryX=1.014;entryY=0.518;entryDx=0;entryDy=0;entryPerimeter=0;fillColor=#d5e8d4;strokeColor=#82b366;" edge="1" parent="1" source="JLQSQmLujptrUOS1xBNh-93" target="JLQSQmLujptrUOS1xBNh-51">
          <mxGeometry width="50" height="50" relative="1" as="geometry">
            <mxPoint x="680" y="630" as="sourcePoint" />
            <mxPoint x="730" y="580" as="targetPoint" />
          </mxGeometry>
        </mxCell>
        <mxCell id="JLQSQmLujptrUOS1xBNh-97" value="" style="endArrow=classic;html=1;rounded=0;entryX=1.017;entryY=0.187;entryDx=0;entryDy=0;entryPerimeter=0;exitX=0.5;exitY=0;exitDx=0;exitDy=0;fillColor=#d5e8d4;strokeColor=#82b366;" edge="1" parent="1" source="JLQSQmLujptrUOS1xBNh-93" target="JLQSQmLujptrUOS1xBNh-43">
          <mxGeometry width="50" height="50" relative="1" as="geometry">
            <mxPoint x="680" y="630" as="sourcePoint" />
            <mxPoint x="730" y="580" as="targetPoint" />
          </mxGeometry>
        </mxCell>
        <mxCell id="JLQSQmLujptrUOS1xBNh-98" value="" style="endArrow=classic;html=1;rounded=0;entryX=0.998;entryY=0.023;entryDx=0;entryDy=0;entryPerimeter=0;exitX=0;exitY=0.25;exitDx=0;exitDy=0;fillColor=#d5e8d4;strokeColor=#82b366;" edge="1" parent="1" source="JLQSQmLujptrUOS1xBNh-93" target="JLQSQmLujptrUOS1xBNh-47">
          <mxGeometry width="50" height="50" relative="1" as="geometry">
            <mxPoint x="680" y="630" as="sourcePoint" />
            <mxPoint x="730" y="580" as="targetPoint" />
          </mxGeometry>
        </mxCell>
        <UserObject label="Activity:&lt;br&gt;View Item" placeholders="1" name="Variable" id="JLQSQmLujptrUOS1xBNh-99">
          <mxCell style="text;html=1;strokeColor=none;fillColor=none;align=center;verticalAlign=middle;whiteSpace=wrap;overflow=hidden;fontColor=#97D077;" vertex="1" parent="1">
            <mxGeometry x="662.75" y="36" width="78.5" height="34" as="geometry" />
          </mxCell>
        </UserObject>
        <mxCell id="JLQSQmLujptrUOS1xBNh-100" value="" style="endArrow=classic;html=1;rounded=0;exitX=0.5;exitY=1;exitDx=0;exitDy=0;entryX=0.704;entryY=-0.024;entryDx=0;entryDy=0;entryPerimeter=0;fillColor=#d5e8d4;strokeColor=#82b366;" edge="1" parent="1" source="JLQSQmLujptrUOS1xBNh-99" target="JLQSQmLujptrUOS1xBNh-16">
          <mxGeometry width="50" height="50" relative="1" as="geometry">
            <mxPoint x="680" y="220" as="sourcePoint" />
            <mxPoint x="730" y="170" as="targetPoint" />
          </mxGeometry>
        </mxCell>
        <mxCell id="JLQSQmLujptrUOS1xBNh-101" value="" style="endArrow=classic;html=1;rounded=0;entryX=1.03;entryY=0.682;entryDx=0;entryDy=0;entryPerimeter=0;exitX=0;exitY=0.75;exitDx=0;exitDy=0;fillColor=#d5e8d4;strokeColor=#82b366;" edge="1" parent="1" source="JLQSQmLujptrUOS1xBNh-90" target="JLQSQmLujptrUOS1xBNh-30">
          <mxGeometry width="50" height="50" relative="1" as="geometry">
            <mxPoint x="700" y="360" as="sourcePoint" />
            <mxPoint x="750" y="310" as="targetPoint" />
          </mxGeometry>
        </mxCell>
        <UserObject label="Activity:&lt;br&gt;&lt;div&gt;Search/Browse Catalog&lt;/div&gt;&lt;div&gt;&lt;br&gt;&lt;/div&gt;" placeholders="1" name="Variable" id="JLQSQmLujptrUOS1xBNh-102">
          <mxCell style="text;html=1;strokeColor=none;fillColor=none;align=center;verticalAlign=middle;whiteSpace=wrap;overflow=hidden;fontColor=#97D077;" vertex="1" parent="1">
            <mxGeometry x="172.5" y="7" width="139.25" height="34" as="geometry" />
          </mxCell>
        </UserObject>
        <mxCell id="JLQSQmLujptrUOS1xBNh-103" value="" style="endArrow=classic;html=1;rounded=0;exitX=0.75;exitY=1;exitDx=0;exitDy=0;entryX=-0.011;entryY=0.388;entryDx=0;entryDy=0;entryPerimeter=0;fillColor=#d5e8d4;strokeColor=#82b366;" edge="1" parent="1" source="JLQSQmLujptrUOS1xBNh-102" target="JLQSQmLujptrUOS1xBNh-6">
          <mxGeometry width="50" height="50" relative="1" as="geometry">
            <mxPoint x="440" y="170" as="sourcePoint" />
            <mxPoint x="490" y="120" as="targetPoint" />
          </mxGeometry>
        </mxCell>
        <mxCell id="JLQSQmLujptrUOS1xBNh-104" value="" style="endArrow=classic;html=1;rounded=0;exitX=0.75;exitY=1;exitDx=0;exitDy=0;entryX=-0.011;entryY=0.252;entryDx=0;entryDy=0;entryPerimeter=0;fillColor=#d5e8d4;strokeColor=#82b366;" edge="1" parent="1" source="JLQSQmLujptrUOS1xBNh-102" target="JLQSQmLujptrUOS1xBNh-8">
          <mxGeometry width="50" height="50" relative="1" as="geometry">
            <mxPoint x="440" y="170" as="sourcePoint" />
            <mxPoint x="490" y="120" as="targetPoint" />
          </mxGeometry>
        </mxCell>
      </root>
    </mxGraphModel>
  </diagram>
</mxfile>
